<?xml version="1.0" encoding="utf-8"?>
<!-- Generator: Adobe Illustrator 24.0.2, SVG Export Plug-In . SVG Version: 6.00 Build 0)  -->
<svg version="1.1" id="Layer_1" xmlns="http://www.w3.org/2000/svg" xmlns:xlink="http://www.w3.org/1999/xlink" x="0px" y="0px"
	 viewBox="0 0 931.2 344.1" style="enable-background:new 0 0 931.2 344.1;" xml:space="preserve">
<style type="text/css">
	.st0{fill:#32006E;stroke:#F4F4F4;stroke-width:2;stroke-miterlimit:10;}
	.st1{fill:#6DBE39;}
	.st2{fill:#CD2736;}
	.st3{fill:#FAB52C;}
	.st4{fill:#0F8383;}
</style>
<path class="st0" d="M677.1,7.7h150.5c49.2,0,89.1,39.9,89.1,89.1v150.5c0,49.2-39.9,89.1-89.1,89.1H677.1
	c-49.2,0-89.1-39.9-89.1-89.1V96.8C588,47.6,627.9,7.7,677.1,7.7z"/>
<path class="st1" d="M684.8,268.5c-8.4,0-16.7-0.1-25.1,0c-1.8,0-2.2-0.6-2.2-2.3c0.1-16.5,0-33.1,0.1-49.6c0-2.5-0.6-4.3-2.4-6
	c-11-10.8-21.8-21.7-32.6-32.5c-1-1-1.9-1.9-2.9-2.9c-0.9-0.8-0.8-1.6,0-2.4c1.3-1.2,3-2.3,3.6-3.8c0.6-1.6,2.1-1.8,2.9-2.8
	c3.7-5.1,10-7.9,12.8-13.8c2.3,0.4,2.2-2.2,3.9-3.1c3.2-1.6,4.8-5.4,7.8-7.6c-0.3-2.5,2.5-1.7,3.5-3.1c2-2.6,3.6-5,3.6-8.5
	c-0.2-15-0.1-29.9-0.1-44.9c0-1.2,0.1-2.3,0-3.5c-0.2-1.7,0.3-2.4,2.2-2.3c5.6,0.1,11.3,0,16.9,0c10.7,0,21.4-0.1,32.1,0.1
	c3.2,0.1,5.5-0.8,7.5-3.2c2-2.5,4.9-4.2,6.2-7.3c0.6-1.4,3.3-1,3.2-3.3c1.9-0.1,3-1.6,4-2.9c2.3-2.9,5.2-5.1,7.8-7.7
	c2.6-2.6,5.2-5.3,7.9-7.8c2.2-2.1,4-4.7,6.7-6.3c2.9,1.3,4.6,4,6.8,6.1c10.1,10,20.1,20,30.1,30.1c1.6,1.6,3.2,2.3,5.5,2.3
	c15.4-0.1,30.7-0.1,46.1-0.1c1.4,0,2.7,0.1,4.1,0c2-0.2,2.1,0.8,2.1,2.4c0,15.8,0.1,31.5-0.1,47.3c-0.1,4.2,1.1,7.1,4.2,10
	c11,10.7,21.8,21.6,32.7,32.5c2.3,2.3,2.3,2.4,0.3,4.5c-8.8,8.8-17.6,17.6-26.3,26.5c-1.3,1.4-3.3,1.9-4.2,3.9
	c-0.9,1.8-2.8,3.2-4.4,4.6c-1.6,1.4-2,2.9-2,5c0.1,15.6,0.1,31.1,0.1,46.7c0,1.2-0.1,2.3,0,3.5c0.2,1.7-0.3,2.4-2.2,2.3
	c-5.6-0.1-11.3,0-16.9,0c-11.1,0-22.2,0-33.3,0c-3.1,0-5,1.4-7.2,3.8c-5.2,5.5-10.6,10.7-16,16c-2.3-0.3-1.4,2.2-2.7,3.1
	c-2.8,1.9-4.3,5.5-7.8,6.5c-1.1,3.5-4.3,5.2-6.6,7.7c-1.9,2.1-2.4,1.9-4.4-0.6c-0.6-0.8-1.4-1.4-2.1-2.1
	c-10.7-10.7-21.5-21.4-32.1-32.2c-1.8-1.9-3.7-2.4-6.1-2.3C701.1,268.6,693,268.5,684.8,268.5z M813.4,261.5c7.6,0,15.2,0,22.8,0
	c3.5,0,3.5,0,3.5-3.3c0-14.8,0.1-29.6-0.1-44.3c0-2.8,0.6-4.5,3-6.4c2.6-2.1,4.1-5.4,6.7-7.6c1.3-1,3.3-1.6,3.9-3
	c2-4.1,5.6-6.8,8.9-9.6c3.2-2.7,5.5-6.1,9.1-8.5c6-4,5.7-4.5,0.4-9.7c-0.6-0.5-1-1.2-1.7-1.6c-3.9-2.4-6.9-5.6-9.6-9.3
	c-1.3-1.7-2.5-4.3-4.7-4.9c-2-0.6-2.5-2.2-3.1-3.4c-0.8-1.8-2.8-1.3-3.8-2.9c-1.8-2.7-5.2-4.4-6.8-7.5c-2.6-0.4-2.4-2.3-2.3-4.2
	c0-15.4,0-30.7,0-46.1c0-2.8,0-2.8-2.7-2.8c-15.4,0-30.7,0-46.1,0c-1.8,0-3.3,0.3-4.4-2.2c-1.1-2.3-3.4-4.4-5.7-5.7
	c-2.2-1.3-3-4-5.4-4.9c-1.6-0.6-1.7-2.6-2.9-3.8c-1.3-1.2-2.7-2.2-4.1-3.3c-3-2.5-4.5-6.7-8.6-8.1c-0.7-0.2-1.5-1-1.6-1.6
	c-0.4-2.3-2.4-3.4-3.8-4.8c-2.2-2.3-2.3-2.3-4.4-0.1c-10.6,10.6-21.3,21.1-31.7,31.8c-2.1,2.2-4.2,2.8-7.1,2.8
	c-15-0.1-29.9-0.1-44.9-0.1c-2.8,0-2.8,0-2.8,2.7c0,15-0.1,29.9,0.1,44.9c0,3.2-1,5.3-3.2,7.5c-9.7,9.5-19.3,19.2-28.9,28.8
	c-4.1,4.1-4.1,3-0.2,6.9c9.5,9.5,18.9,19.1,28.5,28.4c2.7,2.6,3.9,5.2,3.8,9c-0.2,14.6-0.1,29.2-0.1,43.7c0,3,0,3,2.6,3
	c0.8,0,1.6,0,2.3,0c14.4,0,28.8,0.1,43.2-0.1c2.7,0,4.6,0.7,6.5,2.6c10.1,10.3,20.3,20.4,30.5,30.5c1.2,1.2,2.1,3.3,3.9,2.9
	c1.1-0.3,1.3-2.4,2.5-3.4c1.5-1.2,2.8-2.7,4.2-4.1c3.2-3,6.3-6,9.7-8.8c3.2-2.6,5.7-6.1,8.9-9s5.6-6.8,9.4-9.3
	c-0.2-2,1.3-1.5,2.4-1.5C797.4,261.5,805.4,261.5,813.4,261.5z"/>
<path class="st2" d="M815.1,146c-0.8,2.6,2.8,3.1,2.5,5.4c5.3,5.5,8.9,12.1,12.8,18.6c1,1.7,4.2,2.4,3,4.8c-0.6,1.3-3.1,1.8-4.7,2.5
	c-10.5,4.2-20.5,9.7-31.3,13.2c-1.5,0.5-2.8,1.6-4.3,2.3c-9,4-17.9,8.2-27.1,11.9c-2.4,1-5.2,1.9-7.3,3.5c-4.6,3.4-9,2.4-13.5,0.5
	c-5.3-2.3-10.4-5-15.6-7.3c-4.3-1.9-8.5-3.8-12.8-5.6s-8.3-4.3-13-5.3c-1.1-0.2-2.5-1.4-3.8-2.1c-6.8-3.7-14.4-5.6-21.2-9.4
	c-2.7-1.5-5.6-2.5-8.4-3.5c-1.1-0.4-1.1-0.5-0.4-1.3c4.6-6.4,9.1-12.9,13.6-19.4c1-1.5,2.2-3,2.1-5c1.6-0.7,2.6-2,3.5-3.4
	c2.1-3.2,4.6-5.9,8.1-7.7c0.5-0.3,0.9-0.6,1.2,0.1c0.1,0.3,0.2,0.9,0,1.1c-6.1,7-9.9,15.5-15.6,22.7c-1.7,2.1-2.8,4.6-4.2,7
	c-1.3,2.3-1.3,2.2,1,2.4c10.1,0.8,19.8,3.1,29.4,6.4c10.3,3.5,19.8,8.6,29.3,13.6c4.3,2.2,8.7,4.5,12.7,7.5c1,0.7,1.5,0.5,2.4-0.1
	c8.1-5.5,16.6-10.4,25.5-14.5c6.2-2.8,12.5-5.8,19-7.6c4-1.1,8.1-2.3,12.1-3.3c4.2-1,8.6,0.3,12.6-2c1.2-0.7,3.3,0.7,4-0.8
	c0.3-0.6-1.4-2-2.2-3c-6.9-9.3-12.1-19.7-19.1-28.9c-0.4-0.5-0.8-0.9,0-1.2c0.4-0.2,1.1-0.2,1.6,0.3c1.5,1.6,2.8,3.3,4.6,4.5
	C812.8,143.7,813.6,145.2,815.1,146z"/>
<path class="st3" d="M714.2,137.8c15.2-2.3,28.9,10.7,38.3,19.6c9.4-15.4,31.1-24.2,48.1-18.3c32.4,46.5,17.9,9.2-46.6,53.5
	c-5.9,2.7-15.1-7.6-21-10.3c-15.4-7.7-31.6-14.8-48.3-17.3c5.1-6.6,9.9-14.7,15.3-21.4C702.5,136.4,707.7,137.7,714.2,137.8z"/>
<path class="st3" d="M750.8,136.6c-32.1,0.8-29.5-49.4,2.2-47.8c0.8-0.1,3.5,0.2,3.6,0.8c0.1,0.6-2.4,1.3-3.2,1.5
	c-5.4,1.6-10.8,7.6-12,13.7c-3.9,15,11.9,29,26.6,23.8C765.7,133.7,757.5,137.3,750.8,136.6z"/>
<path class="st4" d="M666.9,233.7c0-7.6,0-15.2,0-22.7c0-2-0.3-3.3-2.5-4.5c-1.7-0.9-2.8-3.2-4.3-4.7c-4.8-4.7-8.8-10.2-14.7-13.8
	c-1-2.5-3.4-4-4.9-6.1c-1.7-2.2-4.1-3.4-5.9-5.5c-2.6-3-3-2.7-0.7-5.1c10.3-10.3,20.6-20.7,31-30.9c1.5-1.5,2.1-2.9,2.1-5
	c-0.1-13.6-0.1-27.2,0-40.8c0-1.9-0.9-4.3,0.5-5.5c1-0.9,3.3-0.3,5-0.3c13.4,0,26.8-0.1,40.2,0.1c2.7,0,4.6-0.7,6.5-2.7
	c9.2-9.5,18.6-18.7,28-28.1c0.8-0.8,1.6-1.7,2.5-2.5c1.1-1.1,2.4-1.1,3.6-0.1c0.9,0.8,1.7,1.6,2.5,2.5c9.2,9.2,18.5,18.4,27.6,27.7
	c2.2,2.2,4.3,3.2,7.5,3.2c14.2-0.2,28.4-0.1,42.6-0.1c2.7,0,2.7,0,2.7,2.8c0,14.2,0.1,28.4-0.1,42.6c0,2.9,0.7,5,2.8,7.1
	c10.3,10,20.4,20.3,30.6,30.4c2.7,2.7,1.7,2.8,0,4.5c-10.5,10.4-20.9,20.9-31.4,31.3c-1.5,1.5-2.1,2.9-2.1,5
	c0.1,14.2,0.1,28.4,0,42.6c0,4.1,0,4.1-3.8,4.1c-14,0-28,0.1-42-0.1c-2.7,0-4.6,0.8-6.5,2.7c-9.2,9.5-18.6,18.7-28,28.1
	c-1,1-1.8,2.2-2.9,2.8c-0.9,0.5-1.9,0.7-3.2-0.8c-3.4-3.7-6.1-8.2-10.8-10.7c-1.1-0.6-1.8-2.7-3-3.8c-2.7-2.7-5.9-4.7-8.3-7.7
	c-1.4-1.7-3.1-3.1-4.2-4.9c-1.1-1.7-3.6-1.6-4.2-4c-0.4-1.7-2.3-1.6-3.9-1.6c-14,0-28,0-42,0c-1.4,0-2.7-0.1-4.1,0
	c-1.7,0.2-2.3-0.4-2.3-2.2C666.9,249.3,666.9,241.5,666.9,233.7z M685.5,149.5c-1-0.1-1.6,0.7-1.8,1.3c-1.1,3.1-3.8,5-5.6,7.6
	c-3.6,5-6.6,10.4-11,14.8c-1,1-0.4,2.4,1.2,3.3c6.6,3.4,13,7.1,19.7,10.1s12.9,7.1,19.8,9.8c4.3,1.7,8.4,4.2,12.5,6.3
	c4.3,2.2,8.7,4.3,13.1,6.4c4.2,2.1,8.1,4.7,12.5,6.4c0.9,0.4,2.1,0.5,2.9,1.5c1.4,1.9,2.7,1.4,4.8,0.3c13-6.7,26.1-13,39.1-19.5
	c8.1-4,16.3-7.7,24-12.3c5-2.9,10.5-4.8,15.5-7.9c1.3-0.8,4-1,4.6-2.2c0.8-1.7-2.7-2.5-2.5-4.7c0-0.3-0.5-0.5-0.8-0.8
	c-4.7-6.2-9.6-12.3-13.9-18.8c-1.4-2.1-2.8-3.9-4.8-5.2c0.1-1.1-0.4-2.9,1.5-2.2c1.4,0.5,2.3,1.7,3.9,0c0.7-0.7,2.4-0.1,3.5,1
	c2.4,2.4,3.7,5.6,5.8,8.1c6.1,7.5,11.2,15.7,17.3,23.2c1.2,1.4,1.2,1.7-0.7,2.7c-23.2,11.5-46.4,23.2-69.5,34.9
	c-5.1,2.6-10.3,5.1-15.4,7.8c-0.6,0.3-1.6,0.8,0.2,1.6c8.4,4.1,16.7,8.6,25.1,12.6c1.3,0.6,1.7,1,1.7,2.2c0,3.5-0.1,7,0,10.5
	c0,2.9,0.8,3.7,3.7,3.7c11.7,0,23.3,0,35,0.1c1.8,0,2.2-0.6,2.2-2.3c-0.1-13.4,0-26.8-0.1-40.2c0-2.5,0.6-4.3,2.4-6
	c7.1-6.9,14.1-14,21.1-21c2.5-2.5,4.9-5,7.4-7.4c0.8-0.8,0.9-1.6,0-2.4c-1-0.9-1.9-1.9-2.9-2.9c-8.7-8.7-17.3-17.4-26-25.9
	c-1.5-1.5-2.1-2.9-2.1-5c0.1-13.4,0.1-26.8,0-40.2c0-2.9,0-2.9-2.7-2.9c-12.4,0-24.9,0-37.3,0c-0.8,0-1.9-0.3-2.3,0.1
	c-1.7,1.6-2.9-0.1-4.2-0.5c-0.8-0.3-1.4-1.3-2.1-2c-8.2-8.2-16.5-16.5-24.7-24.7c-0.8-0.8-1.7-1.6-2.5-2.5c-1.6-2-1.6-2.1-3.2-0.5
	c-9.4,9.3-18.7,18.7-28,28.1c-1.5,1.5-2.9,2.1-5,2.1c-13-0.1-26.1-0.1-39.1,0c-4.1,0-4.1,0-4.1,4.4c0,12.8-0.1,25.7,0.1,38.5
	c0,2.3-0.6,3.9-2.3,5.5c-9.3,9.1-18.5,18.4-27.7,27.6c-1.8,1.8-2.6,1.9,0,4.5c9.1,9,18.1,18.2,27.3,27.1c2,1.9,2.7,3.9,2.6,6.6
	c-0.1,12.6-0.1,25.3,0,37.9c0,3.9,0.4,4.3,4.3,4.3c9.3,0,18.7,0,28,0c1.4,0,2.7,0.1,4.1,0c2.4-0.1,3.2-1,3.3-3.6
	c0.1-3.1,0-6.2,0-9.3c0-0.7-0.4-1.9,0.5-2.1c2.6-0.6,4.3-2.8,6.7-3.6c3.9-1.3,7.2-3.4,10.6-5.4c3.5-2,7.1-4.4,11.2-5.2
	c0.5-0.1,1.1-0.1,1.1-0.7c0-0.1-0.6-0.3-0.9-0.5c-6-2.5-11.4-6.2-17.4-8.7c-6.3-2.6-12.1-6.3-18.4-9.1c-9-4.1-17.7-9-26.5-13.5
	c-2-1-3.9-1.9-5.7-3.2s-4.2-1.9-6.4-2.9c-3.3-1.5-6.5-3-9.7-4.7c-2.9-1.5-3.2-2.9-1.2-5.2c0.8-0.9,1.7-1.6,2.3-2.5
	c5.5-8.6,11.7-16.6,17.8-24.7c2.1-2.8,3.5-5.6,7.3-2.6c0.1,0.1,0.7-0.9,1.2-1c0.5-0.2,1.3-0.3,1.5,0.4c0.2,0.5,0.1,1.2-0.1,1.5
	C686.7,146.8,685,147.6,685.5,149.5z M781.4,249.1c-0.2-3.7,0.4-6.4-0.6-8.1c-0.9-1.5-3.9-1.7-5.6-2.9c-2.4-1.6-5.6-2.1-7.4-4.6
	c-5-0.6-8.9-3.9-13.3-5.9c-2.2-1-3.9-1.2-6.1,0c-6.6,3.6-13.4,7.1-20.1,10.5c-2.2,1.1-5,1.6-6.7,3.4c-2.2,2.4-0.5,5.5-0.9,8.3
	c-0.4,2.1,0.5,3.5,2,5c9.3,9.1,18.5,18.4,27.6,27.6c0.9,0.9,1.3,1.4,2.5,0.2c8-8.2,16.1-16.4,24.3-24.3
	C780.1,255.3,782.5,252.3,781.4,249.1z"/>
<polygon class="st4" points="760,94.2 757,104.4 744.5,105.8 754.5,111 751,122.5 759.9,115.9 768.3,122.5 765.5,111.1 774.4,105.4 
	763,104.6 "/>
<g>
	<path class="st0" d="M227.5,82.4v50h12.6V146h-12.7c-0.2,3.1-0.8,6.2-1.8,9.4c-1,3.1-2.3,5.9-4,8.3c-1.7,2.4-3.6,4.5-5.8,6.2
		s-4.7,3.2-7.4,4.3c-2.7,1.2-5.5,2.1-8.4,2.8c-2.9,0.6-5.9,1.1-8.9,1.4s-6.1,0.5-9.2,0.5c-3.1,0-6.8,0.1-11,0.1v-13.6
		c3.6,0,6.6,0,8.9,0c2.4,0,4.6-0.1,6.8-0.3c2.1-0.2,4.1-0.5,5.9-0.8c1.8-0.3,3.4-0.8,4.8-1.4c1.4-0.6,2.6-1.3,3.8-2.3
		c1.1-1,2.1-2.2,3-3.7c0.8-1.5,1.5-3.3,2.1-5.3c0.6-2.1,0.9-4.5,1.1-7.3V82.4H227.5z"/>
	<path class="st0" d="M302.4,146c-2.4,2.2-5.2,3.8-8.4,4.9c-3.2,1.1-6.5,1.7-9.9,1.7c-2.4,0-4.7-0.3-6.9-0.8l-24.6-5.8h-18.8v-13.7
		h10.5v-26.1c0-4.9,0.9-9.3,2.7-13.1c1.8-3.8,4.2-7,7.2-9.5c3-2.6,6.4-4.5,10.3-5.8c3.9-1.3,7.8-2,11.9-2c0.8,0,1.5,0,2.3,0.1
		c0.7,0,1.4,0.1,2.1,0.2c1.2,0,2.4-0.1,3.7-0.1h4.1c3.9,0,8,0.1,12.3,0.4c4.4,0.3,8.8,0.9,13.2,1.8c4.4,0.9,8.7,2.3,12.8,4.1
		c4.1,1.8,7.8,4.2,11.1,7.3c3.3,3,5.9,6.8,8,11.2c2.1,4.5,3.3,9.8,3.5,15.9v9.9c0,2.7-0.6,5.3-1.9,7.6c-1.3,2.3-3,4.4-5.1,6.1
		s-4.7,3.1-7.6,4.1c-2.9,1-5.9,1.5-9.2,1.5H302.4z M264.5,134.4l19.1,4.5h0.2c0.5,0,1-0.2,1.7-0.6s1.2-1,1.7-1.7
		c0.5-0.7,0.9-1.4,1.3-2.2c0.3-0.6,0.4-1.2,0.4-1.7v-0.3l-0.1-25.1c-0.1-2.8-0.5-5.3-1.2-7.6c-0.7-2.3-1.6-4.2-2.8-5.7
		c-1.2-1.5-2.5-2.7-3.9-3.5c-1.5-0.8-2.9-1.2-4.5-1.2c-1.4,0-2.8,0.3-4.2,1c-1.4,0.7-2.7,1.7-3.9,3.2c-1.2,1.4-2.1,3.2-2.8,5.3
		c-0.7,2.1-1.1,4.5-1.1,7.2V134.4z M308.9,132.3l16.9,0.1c0.3,0,0.6-0.1,1-0.4c0.4-0.3,0.8-0.7,1.3-1.2c0.4-0.5,0.8-1.2,1-1.9
		c0.3-0.7,0.4-1.4,0.4-2.2l-0.1-12.5c-0.4-4.1-1.5-7.5-3.3-10.3c-1.8-2.8-3.9-5.1-6.5-7c-2.6-1.8-5.4-3.2-8.6-4.3
		c-3.2-1-5.3-1.6-6.3-1.7c0.5,0.6,1.3,2.5,2.3,5.7c1.1,3.2,1.7,6.7,1.8,10.7V132.3z"/>
	<path class="st0" d="M384,54.4v71c0,1.2,0.2,2.3,0.7,3.2c0.4,1,1,1.8,1.8,2.4c1.1,0.9,1.9,1.3,2.6,1.3h12.8V146h-12.7
		c-3.7,0-7.2-0.6-10.4-1.8c-3.2-1.2-6-2.9-8.3-5c-2-1.8-3.6-3.9-4.7-6.2c-1.2-2.4-1.7-4.9-1.7-7.6v-71H384z"/>
	<path class="st0" d="M478.9,146h-15.8c-0.4,0.4-1.1,0.9-1.9,1.4c-3.2,2.5-6.9,4.1-10.9,4.7c-1.8,0.3-3.6,0.4-5.4,0.4
		c-2.3,0-4.5-0.2-6.8-0.7h-0.3l-24.5-5.9h-17.7v-13.7h9.3v-26.1c0-3.3,0.4-6.4,1.3-9.3c0.9-2.8,2.1-5.4,3.6-7.7
		c1.5-2.3,3.4-4.3,5.5-6c2.1-1.7,4.4-3.1,6.8-4.2c2.3-1.1,4.6-1.8,7.1-2.4c2.5-0.5,5-0.8,7.6-0.8h0.7c2.3,0,4.6,0.2,6.9,0.6
		c2.5,0.5,5,1.3,7.3,2.3c2.4,1.1,4.7,2.5,6.9,4.3s4,3.8,5.7,6.2c1.6,2.4,2.9,5.1,3.8,8.1c0.9,3,1.4,6.3,1.5,10v0.1l0.1,24.5v1.1
		c0.1,0,0.1-0.3,0.2-0.8h8.9V146z M425.2,134.4L440,138c1.5,0.5,2.9,0.7,4,0.7c0.2,0,0.4,0,0.7-0.1c1.2-0.1,2.2-0.4,2.8-1
		c0.7-0.5,1.2-1.3,1.5-2.3c0.3-1,0.5-2.1,0.5-3.4l-0.1-24.5c-0.1-2.4-0.3-4.5-0.8-6.5c-0.5-1.9-1.2-3.6-2-5
		c-0.8-1.4-1.8-2.6-2.8-3.6c-1.1-1-2.2-1.7-3.3-2.2c-1.3-0.5-2.4-0.8-3.5-0.8c-1.2,0.1-2.4,0.4-3.6,0.9c-2.3,1.1-4.3,3-5.9,5.6
		c-1.6,2.6-2.4,6.1-2.4,10.4V134.4z"/>
	<path class="st0" d="M512,54.4v71c0,2.7-0.6,5.2-1.7,7.6c-1.2,2.4-2.7,4.5-4.7,6.2c-2.3,2.2-5.1,3.8-8.3,5
		c-3.2,1.2-6.7,1.8-10.5,1.8h-14.2v-13.7h14.2c0.8,0,1.7-0.4,2.6-1.3c0.7-0.7,1.3-1.5,1.8-2.4c0.4-1,0.7-2,0.7-3.2v-71H512z"/>
	<path class="st0" d="M546.3,54.4v90.9h-20.1V54.4H546.3z"/>
	<path class="st0" d="M154.3,263.1c-0.5,2.3-0.8,3.9-0.9,5c-0.1,1.1-0.2,2.1-0.2,3v1c0,3.7,0.6,7,1.7,9.9c1.2,3.2,2.9,5.8,5.1,8
		c2,2,4.2,3.6,6.7,4.8c2.5,1.2,5.2,2,8,2.4c0.7,0.1,1.4,0.2,2.1,0.3c0.7,0.1,1.3,0.1,2,0.1h1.2c4.9,0,9.2-0.8,12.8-2.4
		c4-1.7,7-4,9.1-6.7c0.4-0.5,0.8-1.1,1.1-1.7c0.3-0.6,0.6-1.1,0.9-1.7c0.3-0.6,0.5-1.2,0.6-1.9s0.3-1.2,0.4-1.7v-57h20.1v55.1
		l-0.1,2.9c-0.2,2.3-0.8,4.4-1.7,6.5c-0.5,1-1,1.9-1.6,2.9c-0.6,1-1.2,2-2,2.9c-1.9,2.5-4.2,4.8-7,6.9c-2.8,2-5.9,3.8-9.5,5.2
		c-3.5,1.5-7.4,2.6-11.6,3.4c-3.7,0.7-7.7,1-11.9,1h-1.5c-1.4,0-2.7-0.1-4.1-0.2c-1.3-0.1-2.7-0.3-4-0.5c-5.1-0.9-10-2.3-14.6-4.4
		c-4.6-2.1-8.7-4.9-12.2-8.5c-3.3-3.3-5.8-7.1-7.7-11.6c-1.7-4.1-2.5-8.6-2.5-13.7v-1.4c0.1-1.3,0.1-2.7,0.2-4
		c0.1-1.3,0.4-3.1,0.9-5.2L154.3,263.1z M168.4,211.4c0-1.3,0.3-2.6,0.8-3.8c0.6-1.2,1.3-2.2,2.3-3.1s2.1-1.5,3.4-2
		c1.3-0.5,2.7-0.8,4.1-0.8c1.4,0,2.8,0.3,4,0.8c1.3,0.5,2.4,1.2,3.4,2.1c1,0.9,1.7,1.9,2.3,3.1c0.6,1.2,0.8,2.4,0.8,3.8
		c0,1.3-0.3,2.6-0.8,3.7c-0.6,1.1-1.3,2.2-2.3,3.1c-1,0.9-2.1,1.6-3.4,2c-1.3,0.5-2.6,0.7-4,0.7c-1.4,0-2.8-0.2-4.1-0.7
		c-1.3-0.5-2.4-1.1-3.4-2s-1.8-1.9-2.3-3.1C168.7,214,168.4,212.8,168.4,211.4z"/>
	<path class="st0" d="M242.6,184.2l33-4.3l-1.7,7.7l-33,4.3L242.6,184.2z M266.8,196.4v90.9h-20.1v-90.9H266.8z"/>
	<path class="st0" d="M327.5,224.4v50h12.6V288h-12.7c-0.2,3.1-0.8,6.2-1.8,9.4c-1,3.1-2.3,5.9-4,8.3c-1.7,2.4-3.6,4.5-5.8,6.2
		s-4.7,3.2-7.4,4.3c-2.7,1.2-5.5,2.1-8.4,2.8c-2.9,0.6-5.9,1.1-8.9,1.4c-3,0.3-6.1,0.5-9.2,0.5c-3.1,0-6.8,0.1-11,0.1v-13.6
		c3.6,0,6.6,0,8.9,0c2.4,0,4.6-0.1,6.8-0.3c2.1-0.2,4.1-0.5,5.9-0.8c1.8-0.3,3.4-0.8,4.8-1.4c1.4-0.6,2.6-1.3,3.8-2.3
		c1.1-1,2.1-2.2,3-3.7c0.8-1.5,1.5-3.3,2.1-5.3c0.6-2.1,0.9-4.5,1.1-7.3v-61.8H327.5z"/>
	<path class="st0" d="M393.6,220.8c2.4,1.1,4.7,2.5,6.9,4.3c2.2,1.7,4,3.8,5.7,6.2c1.6,2.4,2.9,5.1,3.8,8.1c0.9,3,1.4,6.3,1.5,10
		c0.1,2.8,0.1,5.5,0.1,8c0,2.5-0.2,4.9-0.5,7.2c-0.3,2.3-0.9,4.4-1.7,6.4c-0.8,2-1.3,3.1-1.5,3.3H423V288h-89.2v-13.7h15.5
		c-0.2-0.2-0.7-1.3-1.5-3.3c-0.8-2-1.4-4.2-1.7-6.4c-0.3-2.3-0.5-4.7-0.5-7.2c-0.1-0.5-0.1-1-0.1-1.6c0-2.1,0.1-4.2,0.2-6.5
		c0.1-3.6,0.6-6.9,1.5-9.9c1-3,2.3-5.7,3.8-8.1c1.6-2.4,3.5-4.5,5.6-6.2c2.2-1.7,4.5-3.2,6.9-4.3c2.3-1,4.7-1.7,7.2-2.2
		c2.6-0.5,5.2-0.8,7.8-0.8s5.2,0.2,7.8,0.7C388.9,219,391.3,219.8,393.6,220.8z M353.7,200.4c0-1.3,0.3-2.5,0.8-3.7s1.3-2.1,2.3-3
		c1-0.8,2-1.5,3.2-2c1.2-0.5,2.5-0.7,3.9-0.7c1.4,0,2.7,0.2,3.9,0.7c1.2,0.5,2.3,1.1,3.3,2c0.9,0.9,1.7,1.9,2.2,3
		c0.5,1.1,0.8,2.3,0.8,3.6c0,1.3-0.3,2.5-0.8,3.6c-0.5,1.1-1.3,2.1-2.2,2.9c-1,0.8-2,1.5-3.3,1.9c-1.2,0.5-2.5,0.7-3.9,0.7
		c-1.4,0-2.7-0.2-3.9-0.7c-1.2-0.5-2.3-1.1-3.2-1.9c-0.9-0.8-1.7-1.8-2.3-2.9C354,202.9,353.7,201.7,353.7,200.4z M391.4,249.5
		c-0.1-2.4-0.3-4.5-0.8-6.5c-0.5-1.9-1.2-3.6-2-5c-0.8-1.4-1.8-2.6-2.8-3.6c-1.1-1-2.2-1.7-3.3-2.2c-0.5-0.2-1.1-0.4-1.7-0.5
		c-0.7-0.1-1.4-0.2-2.1-0.3h-0.3c-0.6,0-1.2,0.1-1.8,0.2c-0.7,0.1-1.3,0.3-1.9,0.6c-1.2,0.5-2.3,1.3-3.3,2.2c-1.1,1-2,2.2-2.8,3.6
		c-0.8,1.4-1.5,3.1-2,5c-0.5,1.9-0.8,4.1-0.8,6.5c-0.1,1.7-0.1,3.3-0.1,4.9c0,0.8,0,1.5,0.1,2.2c0,2.2,0.1,4.2,0.4,5.9
		c0.3,1.7,0.6,3.3,1.1,4.6c0.5,1.3,1.2,2.4,2.2,3.3c0.5,0.5,1,1,1.5,1.5c0.5,0.5,1.1,0.8,1.7,1.2c0.7,0.3,1.4,0.6,2.3,0.8
		c0.9,0.2,2.1,0.3,3.5,0.3c1.5,0,2.7-0.1,3.6-0.3c0.9-0.2,1.7-0.5,2.3-0.8c0.7-0.3,1.2-0.7,1.7-1.2c0.5-0.5,1-1,1.5-1.5
		c0.9-0.9,1.7-1.9,2.2-3.2c0.5-1.3,0.9-2.8,1.1-4.6c0.3-1.8,0.4-3.7,0.5-5.8v-2.3C391.5,252.8,391.5,251.2,391.4,249.5z
		 M379.1,200.4c0-1.3,0.3-2.5,0.8-3.7c0.6-1.1,1.3-2.1,2.3-3c0.9-0.8,2-1.5,3.3-2c1.2-0.5,2.6-0.7,4-0.7c1.4,0,2.7,0.2,3.9,0.7
		c1.2,0.5,2.3,1.1,3.2,2c0.9,0.9,1.6,1.9,2.1,3c0.5,1.1,0.8,2.3,0.8,3.6c0,1.3-0.3,2.5-0.8,3.6c-0.5,1.1-1.3,2.1-2.2,2.9
		c-0.9,0.8-2,1.5-3.2,2c-1.2,0.5-2.5,0.7-3.9,0.7c-1.4,0-2.8-0.2-4-0.7c-1.2-0.5-2.3-1.1-3.3-1.9c-1-0.8-1.7-1.8-2.3-2.9
		C379.4,202.9,379.1,201.7,379.1,200.4z"/>
	<path class="st0" d="M454.5,196.4v71c0,2.7-0.6,5.2-1.7,7.6c-1.2,2.4-2.7,4.5-4.7,6.2c-2.3,2.2-5.1,3.8-8.3,5
		c-3.2,1.2-6.7,1.8-10.5,1.8h-14.2v-13.7h14.2c0.8,0,1.7-0.4,2.6-1.3c0.7-0.7,1.3-1.5,1.8-2.4c0.4-1,0.7-2,0.7-3.2v-71H454.5z"/>
	<path class="st0" d="M488.8,196.4v71c0,1.2,0.2,2.3,0.7,3.2c0.4,1,1,1.8,1.8,2.4c1.1,0.9,1.9,1.3,2.6,1.3h12.8V288H494
		c-3.7,0-7.2-0.6-10.4-1.8c-3.2-1.2-6-2.9-8.3-5c-2-1.8-3.6-3.9-4.7-6.2c-1.2-2.4-1.7-4.9-1.7-7.6v-71H488.8z"/>
	<path class="st0" d="M547.9,224.4v43c0,2.7-0.6,5.2-1.7,7.6c-1.2,2.4-2.7,4.5-4.7,6.2c-2.4,2.2-5.1,3.8-8.3,5s-6.7,1.8-10.5,1.8
		h-22.2v-13.7h22.3c0.8,0,1.7-0.4,2.7-1.3c0.7-0.7,1.3-1.5,1.8-2.4c0.4-1,0.7-1.6,0.7-1.8h-0.1v-44.4H547.9z M513.3,308.1
		c0-1.3,0.3-2.5,0.8-3.7s1.3-2.1,2.3-3c1-0.8,2-1.5,3.2-2c1.2-0.5,2.5-0.7,3.9-0.7c1.4,0,2.7,0.2,3.9,0.7c1.2,0.5,2.3,1.1,3.3,2
		c0.9,0.9,1.7,1.9,2.2,3c0.5,1.1,0.8,2.3,0.8,3.6c0,1.3-0.3,2.5-0.8,3.6c-0.5,1.1-1.3,2.1-2.2,2.9c-1,0.8-2,1.5-3.3,1.9
		c-1.2,0.5-2.5,0.7-3.9,0.7c-1.4,0-2.7-0.2-3.9-0.7c-1.2-0.5-2.3-1.1-3.2-1.9c-0.9-0.8-1.7-1.8-2.3-2.9
		C513.5,310.6,513.3,309.3,513.3,308.1z"/>
</g>
</svg>
