<svg id="Layer_1" data-name="Layer 1" xmlns="http://www.w3.org/2000/svg" viewBox="0 0 330.7 330.7"><defs><style>.cls-1{fill:#e4e8be;stroke:#f4f4f4;stroke-miterlimit:10;stroke-width:2px;}.cls-2{fill:#6dbe39;}.cls-3{fill:#cd2736;}.cls-4{fill:#fab52c;}.cls-5{fill:#0f8383;}</style></defs><title>favicon</title><path class="cls-1" d="M110.91,7.7h150.5a89.11,89.11,0,0,1,89.1,89.1V247.3a89.11,89.11,0,0,1-89.1,89.1H110.91a89.11,89.11,0,0,1-89.1-89.1V96.8A89.11,89.11,0,0,1,110.91,7.7Z" transform="translate(-20.81 -6.7)"/><path class="cls-2" d="M118.7,268.48c-8.4,0-16.7-.1-25.1,0-1.8,0-2.2-.6-2.2-2.3.1-16.5,0-33.1.1-49.6a7.44,7.44,0,0,0-2.4-6c-11-10.8-21.8-21.7-32.6-32.5l-2.9-2.9a1.45,1.45,0,0,1,0-2.4c1.3-1.2,3-2.3,3.6-3.8s2.1-1.8,2.9-2.8c3.7-5.1,10-7.9,12.8-13.8,2.3.4,2.2-2.2,3.9-3.1,3.2-1.6,4.8-5.4,7.8-7.6-.3-2.5,2.5-1.7,3.5-3.1,2-2.6,3.6-5,3.6-8.5-.2-15-.1-29.9-.1-44.9,0-1.2.1-2.3,0-3.5-.2-1.7.3-2.4,2.2-2.3,5.6.1,11.3,0,16.9,0,10.7,0,21.4-.1,32.1.1a8.52,8.52,0,0,0,7.5-3.2c2-2.5,4.9-4.2,6.2-7.3.6-1.4,3.3-1,3.2-3.3,1.9-.1,3-1.6,4-2.9,2.3-2.9,5.2-5.1,7.8-7.7s5.2-5.3,7.9-7.8c2.2-2.1,4-4.7,6.7-6.3,2.9,1.3,4.6,4,6.8,6.1q15.15,15,30.1,30.1a7.11,7.11,0,0,0,5.5,2.3c15.4-.1,30.7-.1,46.1-.1,1.4,0,2.7.1,4.1,0,2-.2,2.1.8,2.1,2.4,0,15.8.1,31.5-.1,47.3a12,12,0,0,0,4.2,10c11,10.7,21.8,21.6,32.7,32.5,2.3,2.3,2.3,2.4.3,4.5-8.8,8.8-17.6,17.6-26.3,26.5-1.3,1.4-3.3,1.9-4.2,3.9-.9,1.8-2.8,3.2-4.4,4.6a5.86,5.86,0,0,0-2,5c.1,15.6.1,31.1.1,46.7,0,1.2-.1,2.3,0,3.5.2,1.7-.3,2.4-2.2,2.3-5.6-.1-11.3,0-16.9,0H228.7c-3.1,0-5,1.4-7.2,3.8-5.2,5.5-10.6,10.7-16,16-2.3-.3-1.4,2.2-2.7,3.1-2.8,1.9-4.3,5.5-7.8,6.5-1.1,3.5-4.3,5.2-6.6,7.7-1.9,2.1-2.4,1.9-4.4-.6a20.82,20.82,0,0,0-2.1-2.1c-10.7-10.7-21.5-21.4-32.1-32.2a7.19,7.19,0,0,0-6.1-2.3C135,268.58,126.9,268.48,118.7,268.48Zm128.6-7h22.8c3.5,0,3.5,0,3.5-3.3,0-14.8.1-29.6-.1-44.3a7,7,0,0,1,3-6.4c2.6-2.1,4.1-5.4,6.7-7.6,1.3-1,3.3-1.6,3.9-3,2-4.1,5.6-6.8,8.9-9.6s5.5-6.1,9.1-8.5c6-4,5.7-4.5.4-9.7a12.88,12.88,0,0,0-1.7-1.6,34,34,0,0,1-9.6-9.3c-1.3-1.7-2.5-4.3-4.7-4.9-2-.6-2.5-2.2-3.1-3.4-.8-1.8-2.8-1.3-3.8-2.9-1.8-2.7-5.2-4.4-6.8-7.5-2.6-.4-2.4-2.3-2.3-4.2V89.18c0-2.8,0-2.8-2.7-2.8H224.7c-1.8,0-3.3.3-4.4-2.2a14.21,14.21,0,0,0-5.7-5.7c-2.2-1.3-3-4-5.4-4.9-1.6-.6-1.7-2.6-2.9-3.8s-2.7-2.2-4.1-3.3c-3-2.5-4.5-6.7-8.6-8.1a2.54,2.54,0,0,1-1.6-1.6c-.4-2.3-2.4-3.4-3.8-4.8-2.2-2.3-2.3-2.3-4.4-.1-10.6,10.6-21.3,21.1-31.7,31.8a8.74,8.74,0,0,1-7.1,2.8c-15-.1-29.9-.1-44.9-.1-2.8,0-2.8,0-2.8,2.7,0,15-.1,29.9.1,44.9a9.63,9.63,0,0,1-3.2,7.5c-9.7,9.5-19.3,19.2-28.9,28.8-4.1,4.1-4.1,3-.2,6.9,9.5,9.5,18.9,19.1,28.5,28.4a11,11,0,0,1,3.8,9c-.2,14.6-.1,29.2-.1,43.7,0,3,0,3,2.6,3h2.3c14.4,0,28.8.1,43.2-.1a8.31,8.31,0,0,1,6.5,2.6c10.1,10.3,20.3,20.4,30.5,30.5,1.2,1.2,2.1,3.3,3.9,2.9,1.1-.3,1.3-2.4,2.5-3.4a54,54,0,0,0,4.2-4.1c3.2-3,6.3-6,9.7-8.8,3.2-2.6,5.7-6.1,8.9-9s5.6-6.8,9.4-9.3c-.2-2,1.3-1.5,2.4-1.5C231.3,261.48,239.3,261.48,247.3,261.48Z" transform="translate(-20.81 -6.7)"/><path class="cls-3" d="M249,146c-.8,2.6,2.8,3.1,2.5,5.4,5.3,5.5,8.9,12.1,12.8,18.6,1,1.7,4.2,2.4,3,4.8-.6,1.3-3.1,1.8-4.7,2.5-10.5,4.2-20.5,9.7-31.3,13.2-1.5.5-2.8,1.6-4.3,2.3-9,4-17.9,8.2-27.1,11.9-2.4,1-5.2,1.9-7.3,3.5-4.6,3.4-9,2.4-13.5.5-5.3-2.3-10.4-5-15.6-7.3-4.3-1.9-8.5-3.8-12.8-5.6s-8.3-4.3-13-5.3c-1.1-.2-2.5-1.4-3.8-2.1-6.8-3.7-14.4-5.6-21.2-9.4a55.3,55.3,0,0,0-8.4-3.5c-1.1-.4-1.1-.5-.4-1.3,4.6-6.4,9.1-12.9,13.6-19.4,1-1.5,2.2-3,2.1-5a8.2,8.2,0,0,0,3.5-3.4,21.41,21.41,0,0,1,8.1-7.7c.5-.3.9-.6,1.2.1.1.3.2.9,0,1.1-6.1,7-9.9,15.5-15.6,22.7-1.7,2.1-2.8,4.6-4.2,7s-1.3,2.2,1,2.4a118.86,118.86,0,0,1,29.4,6.4c10.3,3.5,19.8,8.6,29.3,13.6a86.33,86.33,0,0,1,12.7,7.5c1,.7,1.5.5,2.4-.1a178.19,178.19,0,0,1,25.5-14.5c6.2-2.8,12.5-5.8,19-7.6,4-1.1,8.1-2.3,12.1-3.3,4.2-1,8.6.3,12.6-2,1.2-.7,3.3.7,4-.8.3-.6-1.4-2-2.2-3-6.9-9.3-12.1-19.7-19.1-28.9-.4-.5-.8-.9,0-1.2a1.43,1.43,0,0,1,1.6.3,27.94,27.94,0,0,0,4.6,4.5C246.7,143.68,247.5,145.18,249,146Z" transform="translate(-20.81 -6.7)"/><path class="cls-4" d="M148.1,137.78c15.2-2.3,28.9,10.7,38.3,19.6,9.4-15.4,31.1-24.2,48.1-18.3,32.4,46.5,17.9,9.2-46.6,53.5-5.9,2.7-15.1-7.6-21-10.3-15.4-7.7-31.6-14.8-48.3-17.3,5.1-6.6,9.9-14.7,15.3-21.4C136.4,136.38,141.6,137.68,148.1,137.78Z" transform="translate(-20.81 -6.7)"/><path class="cls-4" d="M184.7,136.58c-32.1.8-29.5-49.4,2.2-47.8.8-.1,3.5.2,3.6.8s-2.4,1.3-3.2,1.5c-5.4,1.6-10.8,7.6-12,13.7-3.9,15,11.9,29,26.6,23.8C199.6,133.68,191.4,137.28,184.7,136.58Z" transform="translate(-20.81 -6.7)"/><path class="cls-5" d="M100.8,233.68V211c0-2-.3-3.3-2.5-4.5-1.7-.9-2.8-3.2-4.3-4.7-4.8-4.7-8.8-10.2-14.7-13.8-1-2.5-3.4-4-4.9-6.1-1.7-2.2-4.1-3.4-5.9-5.5-2.6-3-3-2.7-.7-5.1,10.3-10.3,20.6-20.7,31-30.9a6.37,6.37,0,0,0,2.1-5q-.15-20.4,0-40.8c0-1.9-.9-4.3.5-5.5,1-.9,3.3-.3,5-.3,13.4,0,26.8-.1,40.2.1a8.07,8.07,0,0,0,6.5-2.7c9.2-9.5,18.6-18.7,28-28.1.8-.8,1.6-1.7,2.5-2.5a2.45,2.45,0,0,1,3.6-.1,29.49,29.49,0,0,1,2.5,2.5c9.2,9.2,18.5,18.4,27.6,27.7a9.63,9.63,0,0,0,7.5,3.2c14.2-.2,28.4-.1,42.6-.1,2.7,0,2.7,0,2.7,2.8,0,14.2.1,28.4-.1,42.6a9.06,9.06,0,0,0,2.8,7.1c10.3,10,20.4,20.3,30.6,30.4,2.7,2.7,1.7,2.8,0,4.5-10.5,10.4-20.9,20.9-31.4,31.3a6.37,6.37,0,0,0-2.1,5q.15,21.3,0,42.6c0,4.1,0,4.1-3.8,4.1-14,0-28,.1-42-.1a8.4,8.4,0,0,0-6.5,2.7c-9.2,9.5-18.6,18.7-28,28.1a15.21,15.21,0,0,1-2.9,2.8c-.9.5-1.9.7-3.2-.8-3.4-3.7-6.1-8.2-10.8-10.7-1.1-.6-1.8-2.7-3-3.8-2.7-2.7-5.9-4.7-8.3-7.7-1.4-1.7-3.1-3.1-4.2-4.9s-3.6-1.6-4.2-4c-.4-1.7-2.3-1.6-3.9-1.6h-42c-1.4,0-2.7-.1-4.1,0-1.7.2-2.3-.4-2.3-2.2C100.8,249.28,100.8,241.48,100.8,233.68Zm18.6-84.2a1.77,1.77,0,0,0-1.8,1.3c-1.1,3.1-3.8,5-5.6,7.6-3.6,5-6.6,10.4-11,14.8-1,1-.4,2.4,1.2,3.3,6.6,3.4,13,7.1,19.7,10.1s12.9,7.1,19.8,9.8c4.3,1.7,8.4,4.2,12.5,6.3,4.3,2.2,8.7,4.3,13.1,6.4,4.2,2.1,8.1,4.7,12.5,6.4.9.4,2.1.5,2.9,1.5,1.4,1.9,2.7,1.4,4.8.3,13-6.7,26.1-13,39.1-19.5,8.1-4,16.3-7.7,24-12.3,5-2.9,10.5-4.8,15.5-7.9,1.3-.8,4-1,4.6-2.2.8-1.7-2.7-2.5-2.5-4.7,0-.3-.5-.5-.8-.8-4.7-6.2-9.6-12.3-13.9-18.8a17.15,17.15,0,0,0-4.8-5.2c.1-1.1-.4-2.9,1.5-2.2,1.4.5,2.3,1.7,3.9,0,.7-.7,2.4-.1,3.5,1,2.4,2.4,3.7,5.6,5.8,8.1,6.1,7.5,11.2,15.7,17.3,23.2,1.2,1.4,1.2,1.7-.7,2.7-23.2,11.5-46.4,23.2-69.5,34.9-5.1,2.6-10.3,5.1-15.4,7.8-.6.3-1.6.8.2,1.6,8.4,4.1,16.7,8.6,25.1,12.6,1.3.6,1.7,1,1.7,2.2,0,3.5-.1,7,0,10.5,0,2.9.8,3.7,3.7,3.7,11.7,0,23.3,0,35,.1,1.8,0,2.2-.6,2.2-2.3-.1-13.4,0-26.8-.1-40.2a7.44,7.44,0,0,1,2.4-6c7.1-6.9,14.1-14,21.1-21,2.5-2.5,4.9-5,7.4-7.4a1.45,1.45,0,0,0,0-2.4c-1-.9-1.9-1.9-2.9-2.9-8.7-8.7-17.3-17.4-26-25.9a6.37,6.37,0,0,1-2.1-5q.15-20.1,0-40.2c0-2.9,0-2.9-2.7-2.9H222.8c-.8,0-1.9-.3-2.3.1-1.7,1.6-2.9-.1-4.2-.5-.8-.3-1.4-1.3-2.1-2l-24.7-24.7c-.8-.8-1.7-1.6-2.5-2.5-1.6-2-1.6-2.1-3.2-.5-9.4,9.3-18.7,18.7-28,28.1a6.37,6.37,0,0,1-5,2.1c-13-.1-26.1-.1-39.1,0-4.1,0-4.1,0-4.1,4.4,0,12.8-.1,25.7.1,38.5a6.79,6.79,0,0,1-2.3,5.5c-9.3,9.1-18.5,18.4-27.7,27.6-1.8,1.8-2.6,1.9,0,4.5,9.1,9,18.1,18.2,27.3,27.1a7.89,7.89,0,0,1,2.6,6.6c-.1,12.6-.1,25.3,0,37.9,0,3.9.4,4.3,4.3,4.3h28c1.4,0,2.7.1,4.1,0,2.4-.1,3.2-1,3.3-3.6.1-3.1,0-6.2,0-9.3,0-.7-.4-1.9.5-2.1,2.6-.6,4.3-2.8,6.7-3.6,3.9-1.3,7.2-3.4,10.6-5.4s7.1-4.4,11.2-5.2c.5-.1,1.1-.1,1.1-.7,0-.1-.6-.3-.9-.5-6-2.5-11.4-6.2-17.4-8.7-6.3-2.6-12.1-6.3-18.4-9.1-9-4.1-17.7-9-26.5-13.5a39.69,39.69,0,0,1-5.7-3.2c-1.8-1.3-4.2-1.9-6.4-2.9-3.3-1.5-6.5-3-9.7-4.7-2.9-1.5-3.2-2.9-1.2-5.2a26.14,26.14,0,0,0,2.3-2.5c5.5-8.6,11.7-16.6,17.8-24.7,2.1-2.8,3.5-5.6,7.3-2.6.1.1.7-.9,1.2-1s1.3-.3,1.5.4a1.89,1.89,0,0,1-.1,1.5C120.6,146.78,118.9,147.58,119.4,149.48Zm95.9,99.6c-.2-3.7.4-6.4-.6-8.1-.9-1.5-3.9-1.7-5.6-2.9-2.4-1.6-5.6-2.1-7.4-4.6-5-.6-8.9-3.9-13.3-5.9-2.2-1-3.9-1.2-6.1,0-6.6,3.6-13.4,7.1-20.1,10.5-2.2,1.1-5,1.6-6.7,3.4-2.2,2.4-.5,5.5-.9,8.3-.4,2.1.5,3.5,2,5,9.3,9.1,18.5,18.4,27.6,27.6.9.9,1.3,1.4,2.5.2,8-8.2,16.1-16.4,24.3-24.3C214,255.28,216.4,252.28,215.3,249.08Z" transform="translate(-20.81 -6.7)"/><polygon class="cls-5" points="173.09 87.48 170.09 97.68 157.59 99.08 167.59 104.28 164.09 115.78 172.99 109.18 181.39 115.78 178.59 104.38 187.49 98.68 176.09 97.88 173.09 87.48"/></svg>